<svg width="1840" height="1380" viewBox="0 0 1840 1380" fill="none" xmlns="http://www.w3.org/2000/svg">
<path d="M1051.55 717.622C1051.55 717.622 1041.93 717.892 1038.36 718.181C1034.8 718.47 1015.16 718.605 1012.21 717.969C1009.25 717.352 995.045 710.8 990.343 712.149C985.641 713.498 964.096 718.663 961.263 722.671C958.431 726.679 955.694 736.295 957.063 741.248C958.431 746.2 960.917 750.035 963.114 752.502C965.31 754.968 1013.39 740.149 1027.11 744.254C1040.85 748.378 1057.33 746.181 1057.33 746.181L1056.77 724.213L1051.55 717.622Z" fill="white"/>
<path d="M1210.51 478.938C1210.22 478.09 1211.72 441.457 1211.72 441.457C1211.72 441.457 1219.85 429.104 1218.74 425.134C1217.6 421.165 1214.77 415.788 1212.22 412.956C1209.68 410.123 1204.57 374.434 1178.52 376.997C1152.46 379.541 1119.05 384.647 1119.9 394.552C1120.75 404.457 1119.18 431.128 1123.37 443.133C1127.55 455.158 1132.08 471.865 1142.56 478.649C1153.04 485.451 1158.42 486.858 1158.42 486.858L1160.96 535.573L1210.51 478.938Z" fill="white"/>
<path d="M918.33 399.602L931.858 374.724L795.192 272.09L770.429 282.438L731.946 315.41L720.288 371.101L736.398 372.566C736.398 372.566 731.869 381.739 733.122 387.693C734.374 393.648 735.935 398.35 735.935 398.35L918.33 399.602Z" fill="white"/>
<path d="M761.022 327.53C761.022 327.53 760.598 338.688 763.566 343.313C766.533 347.938 770.638 353.237 773.702 351.792C778.828 349.344 787.962 353.218 786.902 358.267C785.843 363.315 775.032 364.992 774.82 366.688C774.608 368.364 773.548 372.372 775.244 373.201C776.94 374.03 787.114 377.614 794.977 378.25C802.82 378.886 802.396 390.448 802.396 390.448L814.69 391.084C814.69 391.084 821.05 362.891 819.354 354.066C817.658 345.24 810.663 335.547 801.124 331.134C791.547 326.701 761.022 327.53 761.022 327.53Z" fill="white" stroke="black" stroke-width="3.85409" stroke-miterlimit="10" stroke-linecap="round" stroke-linejoin="round"/>
<path d="M618.422 689.139C618.422 689.139 633.549 696.866 639.33 698.196C645.112 699.525 656.462 697.309 661.8 701.279C667.138 705.249 668.911 712.976 668.911 712.976C668.911 712.976 658.678 723.132 644.225 724.23C629.772 725.329 604.856 725.772 604.856 725.772L601.734 729.086L569.918 729.298L574.138 699.718L618.422 689.139Z" fill="white" stroke="black" stroke-width="3.85409" stroke-miterlimit="10" stroke-linecap="round" stroke-linejoin="round"/>
<path d="M625.088 692.223C625.088 692.223 621.311 694.863 618.864 699.507Z" fill="white"/>
<path d="M625.088 692.223C625.088 692.223 621.311 694.863 618.864 699.507" stroke="black" stroke-width="3.85409" stroke-miterlimit="10" stroke-linecap="round" stroke-linejoin="round"/>
<path d="M630.214 694.883C630.214 694.883 626.437 697.523 623.989 702.167Z" fill="white"/>
<path d="M630.214 694.883C630.214 694.883 626.437 697.523 623.989 702.167" stroke="black" stroke-width="3.85409" stroke-miterlimit="10" stroke-linecap="round" stroke-linejoin="round"/>
<path d="M635.993 697.078C635.993 697.078 632.216 699.718 629.769 704.362Z" fill="white"/>
<path d="M635.993 697.078C635.993 697.078 632.216 699.718 629.769 704.362" stroke="black" stroke-width="3.85409" stroke-miterlimit="10" stroke-linecap="round" stroke-linejoin="round"/>
<path d="M602.888 443.094C602.888 443.094 617.65 544.148 617.65 559.545C617.65 574.923 619.133 656.206 619.5 667.556C619.866 678.906 624.664 691.721 624.664 691.721C624.664 691.721 594.024 710.394 591.076 710.76C588.127 711.127 577.413 706.001 577.413 706.001L602.888 443.094Z" fill="white" stroke="black" stroke-width="3.85409" stroke-miterlimit="10" stroke-linecap="round" stroke-linejoin="round"/>
<path d="M923.316 392.471L931.853 374.704L789.233 265.807L731.941 315.39L688.718 401.451L923.316 392.471Z" stroke="black" stroke-width="3.85409" stroke-miterlimit="10" stroke-linecap="round" stroke-linejoin="round"/>
<path d="M914.741 391.7L793.434 294.77" stroke="black" stroke-width="3.85409" stroke-miterlimit="10" stroke-linecap="round" stroke-linejoin="round"/>
<path d="M772.874 324.118C772.874 324.118 798.331 314.31 800.99 309.8C803.649 305.272 813.535 280.779 813.535 278.505C813.535 276.231 810.124 273.611 810.124 273.611C810.124 273.611 808.987 267.579 807.465 266.827C805.942 266.076 797.579 263.802 797.579 263.802C797.579 263.802 793.012 259.659 789.987 260.025C786.942 260.41 774.031 270.951 773.26 273.977C772.508 277.002 771.737 294.712 771.352 296.215C770.967 297.718 763.374 301.861 763.374 301.861" fill="white"/>
<path d="M772.874 324.118C772.874 324.118 798.331 314.31 800.99 309.8C803.649 305.272 813.535 280.779 813.535 278.505C813.535 276.231 810.124 273.611 810.124 273.611C810.124 273.611 808.987 267.579 807.465 266.827C805.942 266.076 797.579 263.802 797.579 263.802C797.579 263.802 793.012 259.659 789.987 260.025C786.942 260.41 774.031 270.951 773.26 273.977C772.508 277.002 771.737 294.712 771.352 296.215C770.967 297.718 763.374 301.861 763.374 301.861" stroke="black" stroke-width="3.85409" stroke-miterlimit="10" stroke-linecap="round" stroke-linejoin="round"/>
<path d="M770.966 330.15C770.966 330.15 773.24 319.59 769.058 312.807C764.877 306.024 759.173 298.489 759.173 298.489C759.173 298.489 743.583 303.769 740.557 303.384C737.532 302.998 710.148 291.32 699.126 291.32C688.103 291.32 632.238 300.377 619.327 304.135C606.396 307.912 576.758 318.453 566.506 329.399C556.255 340.344 539.528 359.557 539.528 359.557C539.528 359.557 571.459 366.34 577.915 372.006C584.37 377.652 599.189 396.884 600.712 403.667C602.234 410.45 609.075 424.017 609.075 424.017C609.075 424.017 618.19 430.048 631.506 431.185C644.802 432.322 667.985 420.259 675.211 413.476C682.438 406.693 708.645 391.989 717.394 381.814C726.143 371.64 737.532 355.433 740.577 350.519C743.621 345.605 748.94 337.704 748.94 337.704L770.966 330.15Z" fill="white" stroke="black" stroke-width="3.85409" stroke-miterlimit="10" stroke-linecap="round" stroke-linejoin="round"/>
<path d="M740.556 303.384L748.92 337.685C750.057 335.797 707.122 360.675 696.851 361.446C686.58 362.217 672.532 347.494 672.146 337.685C671.761 327.877 675.557 314.696 683.169 307.893C690.762 301.11 701.784 296.967 701.784 296.967" fill="white"/>
<path d="M740.556 303.384L748.92 337.685C750.057 335.797 707.122 360.675 696.851 361.446C686.58 362.217 672.532 347.494 672.146 337.685C671.761 327.877 675.557 314.696 683.169 307.893C690.762 301.11 701.784 296.967 701.784 296.967" stroke="black" stroke-width="3.85409" stroke-miterlimit="10" stroke-linecap="round" stroke-linejoin="round"/>
<path d="M797.56 263.801L785.786 274.361" stroke="black" stroke-width="3.85409" stroke-miterlimit="10" stroke-linecap="round" stroke-linejoin="round"/>
<path d="M806.306 268.33L794.532 278.89" stroke="black" stroke-width="3.85409" stroke-miterlimit="10" stroke-linecap="round" stroke-linejoin="round"/>
<path d="M810.488 276.617L798.714 287.177" stroke="black" stroke-width="3.85409" stroke-miterlimit="10" stroke-linecap="round" stroke-linejoin="round"/>
<path d="M537.697 360.25C536.907 360.52 529.738 371.562 529.738 371.562C529.738 371.562 509.235 388.289 511.509 424.864C513.782 461.439 528.524 566.155 528.524 576.85C528.524 587.545 521.722 628.071 523.418 655.647C525.114 683.223 523.418 769.343 523.418 769.343C523.418 769.343 550.84 770.441 558.606 768.61C566.352 766.78 586.297 757.626 586.297 757.626L579.649 733.095L587.396 686.961C587.396 686.961 591.828 602.017 592.56 598.722C593.292 595.427 595.508 582.978 596.26 572.726C596.992 562.474 602.542 508.652 603.274 480.825C604.007 452.999 609.075 424.035 609.075 424.035C609.075 424.035 611.387 395.13 597.744 378.287C584.081 361.445 537.697 360.25 537.697 360.25Z" fill="white" stroke="black" stroke-width="3.85409" stroke-miterlimit="10" stroke-linecap="round" stroke-linejoin="round"/>
<path d="M583.116 754.023C583.116 754.023 602.251 773.448 606.26 776.319C610.268 779.191 630.502 780.52 634.953 784.49C639.405 788.46 641.178 794.414 641.178 794.414C641.178 794.414 633.836 807.653 630.714 808.983C627.592 810.312 585.101 811.411 577.99 809.195C570.879 806.979 556.195 799.714 553.304 799.714C550.414 799.714 549.739 801.93 549.739 801.93L525.266 796.862C525.266 796.862 523.936 768.611 525.266 763.755C526.595 758.88 583.116 754.023 583.116 754.023Z" fill="white" stroke="black" stroke-width="3.85409" stroke-miterlimit="10" stroke-linecap="round" stroke-linejoin="round"/>
<path d="M577.991 771.463C577.991 771.463 583.329 765.277 589.111 763.967Z" fill="white"/>
<path d="M577.991 771.463C577.991 771.463 583.329 765.277 589.111 763.967" stroke="black" stroke-width="3.85409" stroke-miterlimit="10" stroke-linecap="round" stroke-linejoin="round"/>
<path d="M584.658 775.645C584.658 775.645 589.996 769.459 595.777 768.148Z" fill="white"/>
<path d="M584.658 775.645C584.658 775.645 589.996 769.459 595.777 768.148" stroke="black" stroke-width="3.85409" stroke-miterlimit="10" stroke-linecap="round" stroke-linejoin="round"/>
<path d="M589.339 780.057C589.339 780.057 594.677 773.871 600.458 772.561Z" fill="white"/>
<path d="M589.339 780.057C589.339 780.057 594.677 773.871 600.458 772.561" stroke="black" stroke-width="3.85409" stroke-miterlimit="10" stroke-linecap="round" stroke-linejoin="round"/>
<path d="M560.896 396.961C560.896 396.961 571.707 403.802 571.707 416.617C571.707 429.432 566.908 437.756 566.908 437.756" fill="white"/>
<path d="M560.896 396.961C560.896 396.961 571.707 403.802 571.707 416.617C571.707 429.432 566.908 437.756 566.908 437.756" stroke="black" stroke-width="3.85409" stroke-miterlimit="10" stroke-linecap="round" stroke-linejoin="round"/>
<path d="M529.738 371.562C529.738 371.562 570.495 382.354 581.306 388.906C592.117 395.458 602.022 407.367 602.022 407.367" fill="white"/>
<path d="M529.738 371.562C529.738 371.562 570.495 382.354 581.306 388.906C592.117 395.458 602.022 407.367 602.022 407.367" stroke="black" stroke-width="3.85409" stroke-miterlimit="10" stroke-linecap="round" stroke-linejoin="round"/>
<path d="M725.814 372.776L736.413 372.564C736.413 372.564 732.809 379.926 733.021 384.551C733.233 389.176 733.754 389.754 733.754 389.754" stroke="black" stroke-width="3.85409" stroke-miterlimit="10" stroke-linecap="round" stroke-linejoin="round"/>
<path d="M697.221 398.117L719.305 391.141L923.322 392.47V774.893H709.554L679.049 715.983L677.989 424.613L673.018 415.537L697.221 398.117Z" fill="white" stroke="black" stroke-width="3.85409" stroke-miterlimit="10" stroke-linecap="round" stroke-linejoin="round"/>
<path d="M677.984 424.613L721.69 435.848L859.011 436.195L905.549 451.226V763.176" fill="white"/>
<path d="M677.984 424.613L721.69 435.848L859.011 436.195L905.549 451.226V763.176" stroke="black" stroke-width="3.85409" stroke-miterlimit="10" stroke-linecap="round" stroke-linejoin="round"/>
<path d="M709.553 774.893V452.787L905.553 451.227" fill="white"/>
<path d="M709.553 774.893V452.787L905.553 451.227" stroke="black" stroke-width="3.85409" stroke-miterlimit="10" stroke-linecap="round" stroke-linejoin="round"/>
<path d="M709.551 452.788L678.584 441.746" stroke="black" stroke-width="3.85409" stroke-miterlimit="10" stroke-linecap="round" stroke-linejoin="round"/>
<path d="M856.586 502.813L880.096 467.605L754.799 468.029L741.117 503.661L856.586 502.813Z" fill="white" stroke="black" stroke-width="3.85409" stroke-miterlimit="10" stroke-linecap="round" stroke-linejoin="round"/>
<path d="M730.346 638.17V562.649H781.663L788.928 548.234H863.332L854.352 562.649H882.583V634.836" fill="white"/>
<path d="M730.346 638.17V562.649H781.663L788.928 548.234H863.332L854.352 562.649H882.583V634.836" stroke="black" stroke-width="3.85409" stroke-miterlimit="10" stroke-linecap="round" stroke-linejoin="round"/>
<path d="M738.883 637.553V597.855H873.583V634.835" stroke="black" stroke-width="3.85409" stroke-miterlimit="10" stroke-linecap="round" stroke-linejoin="round"/>
<path d="M723.447 774.431V466.836H895.436V762.58" stroke="black" stroke-width="3.85409" stroke-miterlimit="10" stroke-linecap="round" stroke-linejoin="round"/>
<path d="M679.353 638.479L709.955 681.413L723.328 682.454" stroke="black" stroke-width="3.85409" stroke-miterlimit="10" stroke-linecap="round" stroke-linejoin="round"/>
<path d="M904.82 635.491L711.942 638.882L679.028 605.082" stroke="black" stroke-width="3.85409" stroke-miterlimit="10" stroke-linecap="round" stroke-linejoin="round"/>
<path d="M719.303 391.141L721.056 433.998" stroke="black" stroke-width="3.85409" stroke-miterlimit="10" stroke-linecap="round" stroke-linejoin="round"/>
<path d="M915.359 944.068L882.406 1013.96C882.406 1013.96 901.06 1031.83 913.374 1030.25C925.687 1028.67 942.761 1017.14 942.761 1017.14L956.655 959.562L915.359 944.068Z" fill="white" stroke="black" stroke-width="3.85409" stroke-miterlimit="10" stroke-linecap="round" stroke-linejoin="round"/>
<path d="M944.343 1003.23C944.343 1003.23 958.642 1060.41 956.253 1062.39C953.863 1064.38 936.789 1066.36 934.014 1066.76C931.24 1067.17 890.328 1062.8 884.374 1062.39C878.419 1061.99 845.852 1064.38 836.718 1061.2C827.584 1058.02 811.705 1044.12 809.315 1040.54C806.926 1036.95 816.465 1031.81 820.839 1029.01C825.213 1026.24 855.468 1020.9 863.408 1014.54C871.347 1008.18 878.015 994.732 880.616 987.891C883.95 979.142 891.118 977.003 893.508 976.213C895.898 975.423 897.478 988.912 897.478 988.912L889.134 1004.41C889.134 1004.41 899.058 1011.96 908.192 1016.31C917.326 1020.69 929.235 1015.91 929.235 1015.91L944.343 1003.23Z" fill="#FFEC00" stroke="black" stroke-width="3.85409" stroke-linecap="round" stroke-linejoin="round"/>
<path d="M1261.9 1122.36C1261.9 1122.36 1230.8 861.859 1222.93 845.422C1216.27 831.489 1158.38 832.722 1139.34 836.846C1120.3 840.97 1119.37 867.139 1114.75 885.138C1110.12 903.156 1064.84 1102.28 1064.84 1102.28" stroke="#231F20" stroke-width="15.4164" stroke-miterlimit="10" stroke-linecap="round" stroke-linejoin="round"/>
<path d="M1088.54 1003.29L1248.47 1020.42L1195.82 972.725L1088.54 1003.29Z" stroke="#231F20" stroke-width="15.4164" stroke-miterlimit="10" stroke-linecap="round" stroke-linejoin="round"/>
<path d="M1186.5 843.998L1199.14 1065.76" stroke="#231F20" stroke-width="15.4164" stroke-miterlimit="10" stroke-linecap="round" stroke-linejoin="round"/>
<path d="M1077.73 965.979C1077.73 965.979 1108.35 1014.73 1109.6 1019.78C1110.87 1024.83 1116.91 1031.69 1106.15 1033.58C1095.42 1035.47 1052.75 1017.14 1052.75 1017.14L1040.11 977.656L1077.73 965.979Z" fill="white" stroke="black" stroke-width="3.85409" stroke-miterlimit="10" stroke-linecap="round" stroke-linejoin="round"/>
<path d="M1064.15 1011.17C1064.15 1011.17 1064.78 997.274 1058.77 995.058C1052.76 992.842 1040.13 988.429 1038.86 991.261C1037.59 994.113 1036.34 1014 1034.43 1017.49C1032.54 1020.96 993.982 1051.29 989.877 1052.23C985.773 1053.18 975.02 1061.71 975.656 1068.34C976.292 1074.97 985.137 1081.62 1001.88 1082.56C1018.63 1083.51 1049.9 1084.15 1060.97 1079.1C1072.03 1074.05 1077.71 1073.41 1084.03 1072.14C1090.35 1070.87 1121.63 1068.98 1127.64 1064.87C1133.65 1060.77 1135.54 1057.92 1135.54 1057.92C1135.54 1057.92 1127.01 1036.12 1124.17 1028.22C1121.32 1020.32 1111.86 1002.94 1111.86 1002.94C1111.86 1002.94 1115.02 1017.16 1108.39 1018.41C1101.76 1019.69 1092.92 1010.51 1083.74 1009.88C1074.57 1009.24 1064.15 1011.17 1064.15 1011.17Z" fill="#FFEC00" stroke="black" stroke-width="3.85409" stroke-linecap="round" stroke-linejoin="round"/>
<path d="M1177.26 853.247C1213.49 853.247 1242.86 847.026 1242.86 839.353C1242.86 831.68 1213.49 825.459 1177.26 825.459C1141.04 825.459 1111.67 831.68 1111.67 839.353C1111.67 847.026 1141.04 853.247 1177.26 853.247Z" fill="black"/>
<path d="M1078 759.092C1078 759.092 960.683 774.624 954.266 784.799C947.849 794.973 929.619 873.192 923.202 890.324C916.785 907.455 903.912 937.999 903.912 937.999C903.912 937.999 910.349 952.471 925.881 955.67C941.413 958.888 955.885 967.984 955.885 967.984C955.885 967.984 997.663 869.415 1002.48 858.701C1007.3 847.986 1098.91 802.99 1098.91 802.99L1078 759.092Z" fill="#808080" stroke="#231F20" stroke-width="3.85409" stroke-miterlimit="10"/>
<path d="M1249.95 829.525C1259.97 828.639 1173.68 848.873 1110.69 857.12C1079.95 861.148 1032.49 860.338 1029.81 861.938C1027.13 863.537 1028.21 860.338 1027.13 863.537C1026.05 866.756 1081.24 968.003 1081.24 968.003C1081.24 968.003 1077.48 981.935 1064.63 982.995C1051.78 984.074 1034.1 986.213 1027.67 986.213C1021.23 986.213 1006.24 980.316 1006.24 980.316C1006.24 980.316 994.985 951.353 990.688 942.797C986.391 934.241 971.957 900.498 961.243 887.124C950.528 873.731 939.274 852.303 938.735 841.049C938.195 829.795 945.691 806.767 968.739 799.81C991.767 792.853 1125.16 769.286 1132.11 768.746C1139.07 768.187 1249.95 829.525 1249.95 829.525Z" fill="#808080" stroke="#231F20" stroke-width="3.85409" stroke-miterlimit="10"/>
<path d="M803.339 1021.23L937.153 1030.98L1000.53 1014.17L1010.84 1016.89L1010.3 1037.47L941.489 1057.51L804.418 1046.14L803.339 1021.23Z" fill="white" stroke="black" stroke-width="3.85409" stroke-miterlimit="10" stroke-linecap="round" stroke-linejoin="round"/>
<path d="M817.409 1141.88C824.38 1141.88 830.031 1136.23 830.031 1129.26C830.031 1122.29 824.38 1116.63 817.409 1116.63C810.438 1116.63 804.787 1122.29 804.787 1129.26C804.787 1136.23 810.438 1141.88 817.409 1141.88Z" fill="white" stroke="black" stroke-width="3.85409" stroke-miterlimit="10" stroke-linecap="round" stroke-linejoin="round"/>
<path d="M823.189 1141.88C830.16 1141.88 835.811 1136.23 835.811 1129.26C835.811 1122.29 830.16 1116.63 823.189 1116.63C816.218 1116.63 810.567 1122.29 810.567 1129.26C810.567 1136.23 816.218 1141.88 823.189 1141.88Z" fill="white" stroke="black" stroke-width="3.85409" stroke-miterlimit="10" stroke-linecap="round" stroke-linejoin="round"/>
<path d="M1017.92 1138.97C1024.89 1138.97 1030.54 1133.32 1030.54 1126.35C1030.54 1119.38 1024.89 1113.72 1017.92 1113.72C1010.95 1113.72 1005.29 1119.38 1005.29 1126.35C1005.29 1133.32 1010.95 1138.97 1017.92 1138.97Z" fill="white" stroke="black" stroke-width="3.85409" stroke-miterlimit="10" stroke-linecap="round" stroke-linejoin="round"/>
<path d="M1023.72 1138.97C1030.69 1138.97 1036.34 1133.32 1036.34 1126.35C1036.34 1119.38 1030.69 1113.72 1023.72 1113.72C1016.75 1113.72 1011.1 1119.38 1011.1 1126.35C1011.1 1133.32 1016.75 1138.97 1023.72 1138.97Z" fill="white" stroke="black" stroke-width="3.85409" stroke-miterlimit="10" stroke-linecap="round" stroke-linejoin="round"/>
<path d="M810.854 1076.86C817.825 1076.86 823.476 1071.21 823.476 1064.24C823.476 1057.27 817.825 1051.62 810.854 1051.62C803.883 1051.62 798.232 1057.27 798.232 1064.24C798.232 1071.21 803.883 1076.86 810.854 1076.86Z" fill="white" stroke="black" stroke-width="3.85409" stroke-miterlimit="10" stroke-linecap="round" stroke-linejoin="round"/>
<path d="M816.655 1076.86C823.626 1076.86 829.277 1071.21 829.277 1064.24C829.277 1057.27 823.626 1051.62 816.655 1051.62C809.684 1051.62 804.033 1057.27 804.033 1064.24C804.033 1071.21 809.684 1076.86 816.655 1076.86Z" fill="white" stroke="black" stroke-width="3.85409" stroke-miterlimit="10" stroke-linecap="round" stroke-linejoin="round"/>
<path d="M1035.55 1016.83C1035.55 1016.83 1040.97 1015.6 1051.53 1023.23" stroke="black" stroke-width="3.85409" stroke-miterlimit="10" stroke-linecap="round" stroke-linejoin="round"/>
<path d="M1027.2 1025.2C1027.2 1025.2 1032.62 1023.96 1043.18 1031.59" stroke="black" stroke-width="3.85409" stroke-miterlimit="10" stroke-linecap="round" stroke-linejoin="round"/>
<path d="M1017.86 1033.29C1017.86 1033.29 1023.28 1032.06 1033.84 1039.69" stroke="black" stroke-width="3.85409" stroke-miterlimit="10" stroke-linecap="round" stroke-linejoin="round"/>
<path d="M949.065 806.131H927.944V1069.44H949.065V806.131Z" fill="white" stroke="black" stroke-width="3.85409" stroke-miterlimit="10" stroke-linecap="round" stroke-linejoin="round"/>
<path d="M794.668 1086.23L934.013 1066.76L949.082 1069.44L1027.09 1081.35L1026.55 1110.62L937.694 1092.74L795.208 1112.78L794.668 1086.23Z" fill="white" stroke="black" stroke-width="3.85409" stroke-miterlimit="10" stroke-linecap="round" stroke-linejoin="round"/>
<path d="M800.621 791.524L795.052 797.016L795.437 814.225H1003.54V798.924L989.761 766.029L800.621 791.524Z" fill="white" stroke="black" stroke-width="3.85409" stroke-miterlimit="10" stroke-linecap="round" stroke-linejoin="round"/>
<path d="M986.388 752.559L991.649 790.136L815.709 792.949L800.601 791.543L797.788 752.212L808.676 735.003L818.157 719.201L825.171 725.869C825.171 725.869 850.107 728.682 850.454 727.623C850.801 726.563 855.021 710.414 855.021 710.414L933.336 734.29L936.15 741.671L986.388 752.559Z" fill="white" stroke="black" stroke-width="3.85409" stroke-miterlimit="10" stroke-linecap="round" stroke-linejoin="round"/>
<path d="M935.824 761.673L936.171 741.671L933.358 734.29L855.043 710.414L850.495 727.623L825.193 725.869L823.092 738.144L935.824 761.673Z" fill="white" stroke="black" stroke-width="3.85409" stroke-miterlimit="10" stroke-linecap="round" stroke-linejoin="round"/>
<path d="M850.3 760.268C856.792 760.268 862.055 755.005 862.055 748.513C862.055 742.021 856.792 736.758 850.3 736.758C843.808 736.758 838.545 742.021 838.545 748.513C838.545 755.005 843.808 760.268 850.3 760.268Z" fill="white" stroke="black" stroke-width="3.85409" stroke-miterlimit="10" stroke-linecap="round" stroke-linejoin="round"/>
<path d="M991.324 789.655L984.985 779.596L797.811 752.193" stroke="black" stroke-width="3.85409" stroke-miterlimit="10" stroke-linecap="round" stroke-linejoin="round"/>
<path d="M825.193 725.869L804.477 700.587L817.831 684.766L849.975 721.36" stroke="black" stroke-width="3.85409" stroke-miterlimit="10" stroke-linecap="round" stroke-linejoin="round"/>
<path d="M853.291 715.328L841.844 712.148" stroke="black" stroke-width="3.85409" stroke-miterlimit="10" stroke-linecap="round" stroke-linejoin="round"/>
<path d="M1003.85 748.59C1003.18 748.59 991.402 753.793 992.538 758.996C993.675 764.199 1001.6 762.156 1006.34 760.345C1011.08 758.533 1017.65 754.467 1017.65 754.467L1003.85 748.59Z" fill="white" stroke="black" stroke-width="3.85409" stroke-miterlimit="10" stroke-linecap="round" stroke-linejoin="round"/>
<path d="M1057.81 737.857C1057.81 737.857 1037.57 733.694 1031.91 733.983C1026.26 734.272 998.569 730.11 995.004 730.707C991.439 731.305 977.14 731.594 971.783 735.178C966.425 738.743 957.792 750.96 957.503 752.136C957.214 753.331 958.39 755.412 958.39 755.412C958.39 755.412 959.276 761.656 960.779 762.561C962.263 763.448 970.01 756.318 975.656 752.733C981.302 749.168 993.211 749.766 996.796 750.055C1000.36 750.344 1016.3 758.996 1025.8 759.227C1035.3 759.459 1051.6 757.879 1055.67 756.973C1059.73 756.067 1057.81 737.857 1057.81 737.857Z" fill="white" stroke="black" stroke-width="3.85409" stroke-miterlimit="10" stroke-linecap="round" stroke-linejoin="round"/>
<path d="M958.41 755.43C958.41 755.43 972.17 742.269 979.858 740.014C987.547 737.759 991.401 737.297 991.401 737.297" stroke="black" stroke-width="3.85409" stroke-miterlimit="10" stroke-linecap="round" stroke-linejoin="round"/>
<path d="M1044.72 717.333C1044.72 717.333 1018.3 720.185 1012.21 717.968C1006.12 715.752 994.484 711.32 990.341 712.149C986.178 712.977 963.478 721.283 961.262 722.67C959.045 724.058 956.829 736.237 956.271 739.571C955.712 742.885 959.315 746.489 959.315 746.489" stroke="black" stroke-width="3.85409" stroke-miterlimit="10" stroke-linecap="round" stroke-linejoin="round"/>
<path d="M960.974 744.002C960.974 744.002 967.353 728.49 970.108 726.274C972.883 724.057 977.585 722.959 977.585 722.959" stroke="black" stroke-width="3.85409" stroke-miterlimit="10" stroke-linecap="round" stroke-linejoin="round"/>
<path d="M1054.47 715.154L1044.72 717.313C1044.72 717.313 1056.32 731.592 1056.92 735.465C1057.52 739.339 1075.38 736.063 1075.38 736.063L1054.47 715.154Z" fill="white" stroke="black" stroke-width="3.85409" stroke-miterlimit="10" stroke-linecap="round" stroke-linejoin="round"/>
<path d="M1055.76 730.205C1055.76 730.205 1053.04 735.794 1052.45 745.024C1051.85 754.255 1052.74 765.258 1052.74 765.258C1052.74 765.258 1066.73 772.696 1071.78 773.294C1076.84 773.891 1075.26 732.402 1075.26 732.402L1055.76 730.205Z" fill="white" stroke="black" stroke-width="3.85409" stroke-miterlimit="10" stroke-linecap="round" stroke-linejoin="round"/>
<path d="M1122.06 692.936L1054.47 715.174C1054.47 715.174 1068.43 731.303 1069.29 737.412C1070.16 743.521 1090.22 745.255 1102 740.457C1113.77 735.658 1132.94 728.239 1132.94 728.239L1122.06 692.936Z" fill="#45D62F" stroke="black" stroke-width="3.85409" stroke-linecap="round" stroke-linejoin="round"/>
<path d="M1158.24 539.448C1158.24 539.448 1150.4 549.045 1148.22 566.908C1146.04 584.791 1132.96 609.631 1128.6 630.135C1124.25 650.619 1117.7 687.696 1116.83 703.825C1115.96 719.954 1113.78 766.608 1113.78 766.608C1113.78 766.608 1141.69 788.846 1154.33 801.488C1166.97 814.129 1177.88 824.593 1199.67 831.569C1221.47 838.545 1236.31 842.9 1252.86 838.102C1269.43 833.303 1285.56 818.908 1285.56 818.908C1285.56 818.908 1281.63 730.842 1278.14 697.697C1274.65 664.552 1273.79 588.703 1268.55 566.889C1263.3 545.094 1249.35 516.747 1239.33 505.84C1229.31 494.933 1227.56 494.509 1222.34 493.199C1217.11 491.927 1158.24 539.448 1158.24 539.448Z" fill="#45D62F" stroke="black" stroke-width="3.85409" stroke-linecap="round" stroke-linejoin="round"/>
<path d="M1135.95 437.043C1143.36 437.043 1149.36 431.038 1149.36 423.631C1149.36 416.224 1143.36 410.219 1135.95 410.219C1128.54 410.219 1122.54 416.224 1122.54 423.631C1122.54 431.038 1128.54 437.043 1135.95 437.043Z" stroke="black" stroke-width="3.85409" stroke-miterlimit="10" stroke-linecap="round" stroke-linejoin="round"/>
<path d="M1176.66 437.043C1184.07 437.043 1190.08 431.038 1190.08 423.631C1190.08 416.224 1184.07 410.219 1176.66 410.219C1169.26 410.219 1163.25 416.224 1163.25 423.631C1163.25 431.038 1169.26 437.043 1176.66 437.043Z" stroke="black" stroke-width="3.85409" stroke-miterlimit="10" stroke-linecap="round" stroke-linejoin="round"/>
<path d="M1149.52 420.855H1163.26" stroke="black" stroke-width="3.85409" stroke-miterlimit="10" stroke-linecap="round" stroke-linejoin="round"/>
<path d="M1189.9 419.239C1190.06 418.757 1206.13 410.316 1206.13 410.316" stroke="black" stroke-width="3.85409" stroke-miterlimit="10" stroke-linecap="round" stroke-linejoin="round"/>
<path d="M1139.53 423.131C1140.65 423.131 1141.56 422.225 1141.56 421.107C1141.56 419.99 1140.65 419.084 1139.53 419.084C1138.42 419.084 1137.51 419.99 1137.51 421.107C1137.51 422.225 1138.42 423.131 1139.53 423.131Z" stroke="black" stroke-width="3.85409" stroke-miterlimit="10" stroke-linecap="round" stroke-linejoin="round"/>
<path d="M1178.71 423.131C1179.83 423.131 1180.73 422.225 1180.73 421.107C1180.73 419.99 1179.83 419.084 1178.71 419.084C1177.59 419.084 1176.69 419.99 1176.69 421.107C1176.69 422.225 1177.59 423.131 1178.71 423.131Z" stroke="black" stroke-width="3.85409" stroke-miterlimit="10" stroke-linecap="round" stroke-linejoin="round"/>
<path d="M1151.46 440.82C1151.46 440.82 1157.15 443.094 1161.37 441.302" stroke="black" stroke-width="3.85409" stroke-miterlimit="10" stroke-linecap="round" stroke-linejoin="round"/>
<path d="M1151.33 460.188L1173.3 450.379C1173.3 450.379 1174.3 459.34 1168.4 463.136C1158 469.804 1151.33 460.188 1151.33 460.188Z" stroke="black" stroke-width="3.85409" stroke-miterlimit="10" stroke-linecap="round" stroke-linejoin="round"/>
<path d="M1131.67 406.269C1131.67 406.269 1139.78 402.531 1144.16 404.651" stroke="black" stroke-width="3.85409" stroke-miterlimit="10" stroke-linecap="round" stroke-linejoin="round"/>
<path d="M1168 401.238C1168 401.238 1176.11 397.5 1180.48 399.619" stroke="black" stroke-width="3.85409" stroke-miterlimit="10" stroke-linecap="round" stroke-linejoin="round"/>
<path d="M1203.68 442.421C1203.68 442.421 1193.89 483.505 1168.46 487.032C1151.31 489.402 1130.9 475.219 1121.86 437.43C1114.42 406.308 1122.46 383.916 1153.39 380.004C1184.3 376.092 1203.08 392.337 1205.44 402.897C1207.79 413.457 1205.88 418.371 1205.88 418.371C1205.88 418.371 1210.74 415.23 1216.4 420.896C1222.07 426.561 1211.7 441.438 1211.7 441.438L1210.72 471.577" stroke="black" stroke-width="3.85409" stroke-miterlimit="10" stroke-linecap="round" stroke-linejoin="round"/>
<path d="M1158.69 487.396L1160.25 529.117" stroke="black" stroke-width="3.85409" stroke-miterlimit="10" stroke-linecap="round" stroke-linejoin="round"/>
<path d="M1211.82 421.724C1206.35 422.687 1201.05 419.257 1199.72 413.861C1198.44 408.716 1196.83 402.684 1195.32 398.946C1192.28 391.353 1185.28 390.737 1165.22 392.856C1145.16 394.976 1126.72 393.801 1123.14 405.825C1121.59 410.99 1123.35 443.152 1123.35 443.152C1123.35 443.152 1117.03 428.892 1114.29 414.902C1111.55 400.911 1114.1 395.959 1114.1 389.234C1114.1 388.675 1109.3 385.033 1106.68 377.421C1103.81 369.038 1103.09 356.609 1103.09 356.609C1103.09 356.609 1117.2 365.512 1137.88 360.039C1140.44 359.364 1143.62 358.478 1147.2 357.611C1165.07 353.313 1193.38 349.363 1209.31 371.89C1226.04 395.516 1216.42 420.914 1216.42 420.914L1211.82 421.724Z" fill="black"/>
<path d="M1215.77 481.096C1215.77 480.171 1213.61 469.977 1213.61 469.977L1150.9 534.533C1150.9 534.533 1165.1 563.265 1164.8 562.34C1164.49 561.415 1215.77 481.096 1215.77 481.096Z" fill="white" stroke="black" stroke-width="3.85409" stroke-miterlimit="10" stroke-linecap="round" stroke-linejoin="round"/>
<path d="M1215.77 481.096L1227.81 496.531C1227.81 496.531 1212.07 508.267 1197.84 529.58C1183.64 550.893 1161.4 589.511 1156.76 603.097C1152.13 616.683 1149.03 625.335 1149.03 625.335C1149.03 625.335 1160.46 574.056 1167.88 549.66C1175.3 525.264 1215.77 481.096 1215.77 481.096Z" fill="#45D62F" stroke="black" stroke-width="3.85409" stroke-linecap="round" stroke-linejoin="round"/>
<path d="M1252.63 627.262C1252.63 627.262 1248.01 634.18 1243.07 648.035C1238.12 661.891 1190 754.524 1182.41 759.13C1174.84 763.754 1071.64 780.231 1071.64 780.231C1071.64 780.231 1065.05 766.048 1063.4 754.524C1061.74 743 1067.02 730.455 1067.02 730.455C1067.02 730.455 1133.39 718.662 1140.36 712.996C1147.34 707.331 1156.49 700.779 1156.93 698.177C1157.38 695.556 1165.66 661.544 1167.4 648.479C1169.15 635.394 1174.37 608.801 1177.42 596.603C1180.46 584.385 1190.93 568.256 1193.12 565.211" fill="#45D62F"/>
<path d="M1252.63 627.262C1252.63 627.262 1248.01 634.18 1243.07 648.035C1238.12 661.891 1190 754.524 1182.41 759.13C1174.84 763.754 1071.64 780.231 1071.64 780.231C1071.64 780.231 1065.05 766.048 1063.4 754.524C1061.74 743 1067.02 730.455 1067.02 730.455C1067.02 730.455 1133.39 718.662 1140.36 712.996C1147.34 707.331 1156.49 700.779 1156.93 698.177C1157.38 695.556 1165.66 661.544 1167.4 648.479C1169.15 635.394 1174.37 608.801 1177.42 596.603C1180.46 584.385 1190.93 568.256 1193.12 565.211" stroke="black" stroke-width="3.85409" stroke-linecap="round" stroke-linejoin="round"/>
<path d="M1027.13 863.535C1027.13 863.535 1014.16 856.964 1012.68 848.389" stroke="#231F20" stroke-width="3.85409" stroke-miterlimit="10" stroke-linecap="round"/>
</svg>
